<?xml version="1.0" encoding="UTF-8"?>
<svg id="Layer_1" data-name="Layer 1" xmlns="http://www.w3.org/2000/svg" viewBox="0 0 774.78 232.87">
  <defs>
    <style>
      .cls-1 {
        fill: #001530;
      }

      .cls-2 {
        fill: #085fc0;
      }
    </style>
  </defs>
  <path class="cls-1" d="M149.78,52.83c-.36,2-2.16,1.59-3.47,2.02-40.65,13.17-95.57,25.42-121.5,62.5-3.47,4.96-3.4,5.53-2.75,11.7,3.73,35.43,33.74,71.15,67.72,81.27,79.1,23.55,144.55-53.62,118.27-129.27C184.24,12.52,88.14.05,42.81,54.35c-3.8,4.55-7.03,11.79-10.48,15.52s-11.6,8.18-16.02,11.98c-2.94,2.53-5.25,5.83-8.52,7.97C12.85,45.71,55.69,10.1,97.58,2.12c90.02-17.17,161.65,73.32,127.69,157.69-41.8,103.83-188.72,94.55-219.75-12.22-1.59-5.49-6.77-25.33-5.24-29.7,1.05-3,10.32-14.08,12.99-17.08,33.85-37.9,86.5-54.18,136.51-47.98Z"/>
  <path class="cls-2" d="M175.78,75.82v104.5c-7.94,6.28-16.24,12.31-26,15.5v-120h26Z"/>
  <path class="cls-1" d="M297.57,36.09c-55.87,5.02-40.98,96.29,14.65,79.67,44.44-13.27,31.06-83.78-14.65-79.67ZM296.37,103.73c-27.1-3.75-28.52-51,2.18-54.66,34.75-4.14,38.47,60.29-2.18,54.66Z"/>
  <path class="cls-2" d="M135.78,104.82v96c-3.29,1.3-26,3.78-26,.5v-96.5h26Z"/>
  <path class="cls-1" d="M381,59.1c-5.27-1.61-9.86-2.09-14.92.52-2.89,1.49-4.04,4.88-7.3,5.19l1-5.99h-15v78.5c0,2.26,15,2.26,15,0v-28.5c1.65.18,1.34,2.25,3.02,3.48,7.99,5.88,19.95,4.67,27.45-1.51,16.41-13.5,11.3-45.43-9.25-51.69ZM374.16,103.77c-16.74,1.58-20.6-29.44-4.65-32.72,19.28-3.97,22.34,31.05,4.65,32.72Z"/>
  <path class="cls-1" d="M574.77,93.82l18.1-55.41c2.33-3.21,11.03-.92,14.91-1.58l-26.61,79.06c-3.3-.68-13.06,1.17-14.91-1.05l-26.48-78.01c3.2.57,12.64-1.25,14.5.99l20.48,56Z"/>
  <path class="cls-1" d="M421.28,91.82h38.5c2.1-17.57-7.48-34.06-26.5-34.06-38.46,0-38.59,64.21,6.91,57.97,5.24-.72,17.93-8,18.49-13.58.2-2.07-9.23-6.28-10.44-6.09-.81.12-2.57,3.62-3.94,4.78-8.65,7.27-24.6,2.06-24.51-10.02.36-.5,1.28,1,1.49,1ZM419.78,80.82c2.18-14.84,24.55-15.26,26,0h-26Z"/>
  <path class="cls-1" d="M772.8,71.3c-5.59-12.84-23.72-15.11-35.07-9.03-2.62,1.4-8.53,6.3-6.49,9.54.34.55,5.57,3.8,6.05,3.77.7-.06,2.42-2.36,3.78-2.98,8.87-4.06,18.81-5.23,20.51,6.76-10.49,4.54-28.35,1.5-33.59,15.17-7.7,20.1,20.2,28.2,32.78,15.29.23.86-.29,6,.01,6h14v-39.5c0-.65-1.53-3.98-1.98-5.02ZM752.05,104.59c-4.7.96-11.44-.41-11.21-6.2.29-7.13,15.84-6.23,20.93-8.57-.54,6.15-2.88,13.38-9.72,14.77Z"/>
  <path class="cls-1" d="M480.78,58.82c.31.31-.23,4.78,0,6,8.09-9.55,23.74-7.43,30.98,2.51.9,1.24,4.01,7.03,4.01,7.99v40.5h-14v-38.5c0-3.19-7.4-6.56-10.41-6.44-3.72.14-10.59,4.76-10.59,8.44v36.5h-14v-57c2.12.36,13.51-.5,14,0Z"/>
  <path class="cls-2" d="M93.78,128.82v70c-8.95-2.68-16.82-7.69-25-12v-58h25Z"/>
  <path class="cls-1" d="M676.44,65.17c.87.93,3.94,5.84,3.35,6.64-2.74-.12-7.43,4.2-9.44,4.08-.4-.02-1.47-3.08-3.85-4.28-5.21-2.62-17.74-2.63-15.77,5.56.82,3.38,24.51,4.38,29.56,15.65,11.62,25.91-39.03,33.58-45.49,8.5.07-.94,11.43-4.87,11.94-4.48.14.11.46,2.36,1.16,3.34,8.13,11.31,27.33,3.1,19.16-3.4-7.53-6-27.73-2.9-29.32-18.43-2.01-19.62,28.47-24.12,38.68-13.17Z"/>
  <path class="cls-1" d="M707.78,60.83h11.01c-.3,1.78.4,10.6,0,11-1.12,1.12-10.11-2.39-11.01,2.49-.66,3.57-.32,26.45,1.16,28.84,2.48,4,10.28.25,10.81.66.79.6,3.17,8.05.44,9.92-6.2,4.25-19.59,3.15-23.84-4-5.03-8.47-.91-36.27-2.58-37.93-1.07-1.06-5.34,2.83-6-1.49-.19-1.27-.34-9.17,0-9.51s5.65.26,7,0c-1.56-11.86-3.89-15.64,10.55-14.04,6.16.68.87,8.98,2.45,14.05Z"/>
  <path class="cls-1" d="M298.78,176.8c-.58-2.72,2.41-2.19,4.03-4.45,2.42-3.39,2.54-8.31,1.04-12.11-3.79-9.58-18.74-7.86-27.07-8.42v49h18.5c3.1,0,9.34-5.33,10.44-8.58,1.86-5.55.04-14.85-6.94-15.44ZM283.77,158.81c20.5-2.81,19.02,18.05-.99,14l.99-14ZM299.84,187.3c-.35,8.74-10,6.26-16.07,6.52l-.07-13.53c6.55-.98,16.53-2.29,16.14,7.01Z"/>
  <path class="cls-1" d="M655.77,169.82c-15.31-12.73-33.17,6.49-23.84,22.35,3.39,5.76,10.79,7.87,17.14,6.44,2.85-.64,4.68-3.06,6.7-4.79,1.61,9.37-4.67,16.6-13.98,12.51-4.36-1.92-4.79-8.37-9.08-3.06-1.88,2.33,3.1,6.77,5.11,8.01,7.82,4.83,22.08,1.38,23.96-7.96v-37.5c-4.69.14-6.87-1.63-6.01,4ZM646.2,192.76c-12.66.5-13.95-19.25-1.66-20.76,13.24-1.62,15.86,20.19,1.66,20.76Z"/>
  <path class="cls-1" d="M497.77,170.82c-2.02-1.73-3.85-4.14-6.7-4.79-14.39-3.26-23.95,12.97-17.31,25.31,4.74,8.83,17.51,10.43,24.01,2.48,1.9,9.61-4.72,16.13-14.01,12.52-5.07-1.98-4-9.06-9.78-2.04,4.44,13.03,27.24,11.74,29.8-.98v-37.5c-5.72-.08-6.68-1.36-6.01,5ZM494.5,190.53c-10.6,8.82-24.28-9.25-12.25-16.73,11.57-7.2,21.05,9.41,12.25,16.73Z"/>
  <rect class="cls-1" x="613.78" y="58.82" width="14" height="57"/>
  <path class="cls-1" d="M677.78,149.82v21c5.48-4.76,10.58-7.15,17.33-2.83,8.95,5.72,3.04,23.6,4.67,32.84h-6.01v-24.51c0-1.78-5.99-4.51-8.26-4.29-2.48.24-7.74,4.03-7.74,6.29v22.5h-6v-51h6Z"/>
  <path class="cls-1" d="M386.78,149.82h7c.5.37-1,1.29-1,1.5v27.5c6.75-5.29,8.29-15.55,19-12.99l-13.04,15.49,14.05,18.99c.02.76-6.82.86-7.8.29s-8.09-11.39-9.91-13.51c-.62-.72.05-1.87-2.29-1.27v15h-6v-51Z"/>
  <path class="cls-1" d="M435.78,165.82c6.29.12,7.21-1.89,7.5,5.01,3.78-6.97,14.81-6.69,19.51-.52.7.92,2.99,5.33,2.99,6.01v24.5c-2.15-.12-6.04.86-6.86-1.64-2.67-8.14,6.25-29.98-10.4-26.09-1.53.36-5.74,4.15-5.74,5.23v22.5c-1.41.17-7,.27-7-1.5v-33.5Z"/>
  <path class="cls-1" d="M547.78,165.82c4.75.33,8.09-2,7.01,4,5.65-5.12,14.95-5.89,20.02.47.67.84,2.97,5.42,2.97,6.03v24.5h-7v-23.5c0-7.01-16-5.21-16,1v22.5h-7v-35Z"/>
  <path class="cls-1" d="M354.78,200.82h-7.01s0-34.99,0-34.99c4.76.32,8.09-2,7.01,3.99,5.75-5.02,14.95-6.14,20,.49.7.92,2.99,5.33,2.99,6.01v24.5h-7v-24.5c0-.3-2.86-3.04-3.7-3.29-3.79-1.14-12.3.92-12.3,5.29v22.5Z"/>
  <path class="cls-1" d="M335.83,168.27c-6.5-5.02-17.59-2.87-22.03,4.05,3.57,4.93,4.76,1.07,7.98,0,5.06-1.68,13.82-1.6,12.06,5.86-.55,2.33-22.16,1.48-22.12,13.14.04,10.85,15.62,12.17,22.05,5.5-.86,5.63,1.32,3.86,6.01,4v-27.5c0-.67-3.09-4.38-3.95-5.05ZM318.25,191.78c-2.48-5.93,13.29-6.7,16.52-7.96,1.97,8.76-13.33,15.61-16.52,7.96Z"/>
  <path class="cls-1" d="M588.63,189.92c.67.38,1.85,5.15,5.68,5.89,3.59.69,8.42-.77,8-5.09-.64-6.67-12.9-4.33-16.95-10.97-6.98-11.44,13.97-20.24,20.24-9.23,1.66,2.92-1.1,4.56-3.18,4.16-1.38-.27-7.22-7.96-11.73-2.44-5.9,7.21,11.7,7.31,15.11,12.08,10.62,14.82-16.71,24.55-23,8.01.06-.88,5.03-2.85,5.83-2.39Z"/>
  <path class="cls-1" d="M737.91,171.95c-5.64,9.04,18.57,5.6,17.94,19.35-.57,12.71-21.8,12.95-24.94,1,7.02-5.98,5.05-.44,7.89,2,3.76,3.23,11.4,2.51,11.08-3.98-.25-4.99-6.31-4.37-10.09-6.01-16.94-7.34-3.51-24.01,10.26-17.26,1.38.68,4.76,4.19,4.68,5.28-.06.75-3.22,2.54-4.31,2.33-1.52-.29-2.44-3.34-5.18-3.84-1.42-.26-6.77.23-7.33,1.13Z"/>
  <path class="cls-1" d="M710.78,171.82c-.36-.35-4.64.36-5.01,0-.21-.21-.21-5.8,0-6.01.37-.36,4.63.38,5.01.01.56-.53-.71-7.57.13-8.87.33-.51,4.74-1.21,5.86-2.13.32,1.78-.41,10.59,0,11,.56.56,6.81-.88,7.02.57v5.43s-7.02,0-7.02,0v20.5c0,3.1,6.97,2.27,8.99,1.49-.28,3.41,2.3,4.56-1.4,6.1-4.9,2.04-13.6.56-13.6-5.59,0-3.15.81-21.72,0-22.5Z"/>
  <rect class="cls-1" x="531.78" y="151.82" width="6" height="49"/>
  <path class="cls-1" d="M614.1,39.14c8.25-9.01,20.23,7.1,10.23,12.73-8.41,4.73-16.67-5.69-10.23-12.73Z"/>
  <rect class="cls-1" x="420.78" y="166.82" width="6" height="34"/>
  <rect class="cls-1" x="616.78" y="166.82" width="6" height="34"/>
  <path class="cls-1" d="M616.92,152.96c5.05-3.16,9.56,6.03,3.15,7.74-4.51,1.21-5.21-6.46-3.15-7.74Z"/>
  <path class="cls-1" d="M426.53,159.56c-3.88,3.78-8.62-1.96-5.85-5.31,3.82-4.62,9.21,2.03,5.85,5.31Z"/>
</svg>